<svg width="18" height="17" viewBox="0 0 18 17" fill="none" xmlns="http://www.w3.org/2000/svg">
<g clip-path="url(#clip0_1132_32)">
<path fill-rule="evenodd" clip-rule="evenodd" d="M12.7778 17.0001L12.7778 15.3608H13.3242L13.3242 17.0001H12.7778Z" fill="#A9C9FF"/>
<path fill-rule="evenodd" clip-rule="evenodd" d="M9.49783 15.4287L10.6553 14.2679L11.0423 14.6538L9.88477 15.8146L9.49783 15.4287Z" fill="#A9C9FF"/>
<path fill-rule="evenodd" clip-rule="evenodd" d="M9.23853 10.9892L10.9098 12.0177L10.6235 12.4831L8.95215 11.4546L9.23853 10.9892Z" fill="#A9C9FF"/>
<path fill-rule="evenodd" clip-rule="evenodd" d="M12.778 11.1258C11.6464 11.1258 10.7289 12.0432 10.7289 13.1749C10.7289 14.3066 11.6464 15.224 12.778 15.224C13.9097 15.224 14.8271 14.3066 14.8271 13.1749C14.8271 12.0432 13.9097 11.1258 12.778 11.1258ZM10.0459 13.1749C10.0459 11.666 11.2691 10.4427 12.778 10.4427C14.287 10.4427 15.5102 11.666 15.5102 13.1749C15.5102 14.6838 14.287 15.907 12.778 15.907C11.2691 15.907 10.0459 14.6838 10.0459 13.1749Z" fill="#A9C9FF"/>
<path fill-rule="evenodd" clip-rule="evenodd" d="M13.3238 9.3501V10.9894H12.7773V9.3501H13.3238Z" fill="#A9C9FF"/>
<path fill-rule="evenodd" clip-rule="evenodd" d="M16.6496 11.4565L15.248 12.3066L14.9646 11.8394L16.3662 10.9893L16.6496 11.4565Z" fill="#A9C9FF"/>
<path fill-rule="evenodd" clip-rule="evenodd" d="M16.1865 15.2215L14.9646 14.1288L15.3288 13.7215L16.5508 14.8142L16.1865 15.2215Z" fill="#A9C9FF"/>
<path d="M11.0021 3.4C11.0021 5.00163 9.70377 6.3 8.10215 6.3C6.50052 6.3 5.20215 5.00163 5.20215 3.4C5.20215 1.79837 6.50052 0.5 8.10215 0.5C9.70377 0.5 11.0021 1.79837 11.0021 3.4Z" stroke="#A9C9FF"/>
<path d="M5.61313 15.3H2.17758C2.01398 12.9446 2.57021 8.13267 6.10393 7.72888C9.63764 7.32508 11.1753 8.57011 11.5023 9.24311" stroke="#A9C9FF"/>
<path d="M7.67715 15.3H4.70215" stroke="#A9C9FF"/>
</g>
<defs>
<clipPath id="clip0_1132_32">
<rect width="17" height="17" fill="white" transform="translate(0.5)"/>
</clipPath>
</defs>
</svg>
