<svg width="18" height="17" viewBox="0 0 18 17" fill="none" xmlns="http://www.w3.org/2000/svg">
<g clip-path="url(#clip0_1132_5)">
<path d="M14.3044 3.05164H14.7861C15.9316 3.05164 16.8601 3.98022 16.8601 5.12568V11.087C16.8601 11.7306 16.3383 12.2524 15.6946 12.2524V12.2524C15.1743 12.2524 14.7196 12.598 14.5567 13.0923C14.1687 14.2692 13.607 15.6444 13.282 15.3194C12.9748 15.0121 12.0711 13.916 11.3516 13.0286C10.9548 12.5392 10.3595 12.2524 9.72943 12.2524H8.68164" stroke="#A9C9FF" stroke-width="1.28233"/>
<path d="M2.57404 2.15972H11.2049C11.9962 2.15972 12.6377 2.80124 12.6377 3.5926V8.64533C12.6377 9.43668 11.9962 10.0782 11.2049 10.0782H7.83749C6.85781 10.0782 5.97919 10.6064 5.47039 11.4044C5.11519 11.9614 4.72943 12.5152 4.40683 12.8849C4.36111 12.9373 4.31927 12.9829 4.28141 13.0223C4.15503 12.8505 3.99667 12.6221 3.81706 12.3517C3.49725 11.8702 3.14822 11.3148 2.86756 10.8576L2.32113 11.193L2.86755 10.8576C2.57269 10.3772 2.04912 10.0782 1.47911 10.0782C1.29247 10.0782 1.14117 9.9269 1.14117 9.74026V3.5926C1.14117 2.80124 1.78269 2.15972 2.57404 2.15972ZM4.05406 13.2215C4.05408 13.2215 4.05553 13.2206 4.05835 13.2193C4.05546 13.221 4.05404 13.2216 4.05406 13.2215Z" stroke="#A9C9FF" stroke-width="1.28233"/>
<rect x="4.59082" y="5.60803" width="1.02231" height="1.02231" fill="#A9C9FF"/>
<rect x="6.62988" y="5.60803" width="1.02231" height="1.02231" fill="#A9C9FF"/>
<rect x="8.68164" y="5.60803" width="1.02231" height="1.02231" fill="#A9C9FF"/>
</g>
<defs>
<clipPath id="clip0_1132_5">
<rect width="17" height="17" fill="white" transform="translate(0.5)"/>
</clipPath>
</defs>
</svg>
