<svg width="16" height="16" viewBox="0 0 16 16" fill="none" xmlns="http://www.w3.org/2000/svg">
<g clip-path="url(#clip0_1129_221)">
<rect width="16" height="16" fill="white"/>
<rect width="16" height="16" fill="white" fill-opacity="0.2"/>
<path d="M9.22224 2.78223H1.75662C0.786464 2.78223 0 3.56869 0 4.53884V9.84581C0 10.3104 0.376613 10.687 0.841189 10.687C1.13667 10.687 1.41002 10.8421 1.5646 11.0939C2.05059 11.8856 2.77908 13.0269 3.07408 13.3219C3.33949 13.5873 4.12291 12.5327 4.74264 11.5592C5.08117 11.0275 5.65888 10.687 6.28925 10.687H9.22224C10.1924 10.687 10.9789 9.90054 10.9789 8.93038V4.53884C10.9789 3.56869 10.1924 2.78223 9.22224 2.78223Z" fill="#BBDAFF"/>
<path d="M13.6139 3.22131H14.0531C15.0232 3.22131 15.8097 4.00778 15.8097 4.97793V10.1248C15.8097 10.6778 15.3614 11.1261 14.8083 11.1261V11.1261C14.3613 11.1261 13.9706 11.423 13.8307 11.8476C13.4974 12.8588 13.0148 14.0402 12.7356 13.761C12.4705 13.4959 11.6887 12.5475 11.0694 11.7834C10.7333 11.3689 10.2292 11.1261 9.69555 11.1261H8.7832" stroke="#0D5EF8" stroke-width="0.439154"/>
<path d="M10.9791 1.90405H3.51345C2.5433 1.90405 1.75684 2.69052 1.75684 3.66067V8.96764C1.75684 9.43221 2.13345 9.80883 2.59803 9.80883C2.8935 9.80883 3.16686 9.96391 3.32144 10.2157C3.80743 11.0074 4.53591 12.1488 4.83091 12.4438C5.09633 12.7092 5.87974 11.6545 6.49947 10.6811C6.838 10.1493 7.41572 9.80883 8.04609 9.80883H10.9791C11.9492 9.80883 12.7357 9.02236 12.7357 8.05221V3.66067C12.7357 2.69052 11.9492 1.90405 10.9791 1.90405Z" stroke="#0D5EF8" stroke-width="0.439154"/>
<rect x="5.26953" y="5.41736" width="0.878308" height="0.878308" fill="#0D5EF8"/>
<rect x="7.02539" y="5.41736" width="0.878308" height="0.878308" fill="#0D5EF8"/>
<rect x="8.7832" y="5.41736" width="0.878308" height="0.878308" fill="#0D5EF8"/>
</g>
<defs>
<clipPath id="clip0_1129_221">
<rect width="16" height="16" fill="white"/>
</clipPath>
</defs>
</svg>
