<svg width="13" height="12" viewBox="0 0 13 12" fill="none" xmlns="http://www.w3.org/2000/svg">
<g clip-path="url(#clip0_1141_110)">
<path d="M10.7646 1.79553H11.1403C12.0336 1.79553 12.7577 2.51967 12.7577 3.41293V8.06171C12.7577 8.56367 12.3508 8.97059 11.8488 8.97059V8.97059C11.443 8.97059 11.0884 9.2401 10.9614 9.6255C10.6589 10.5433 10.2208 11.6157 9.96741 11.3623C9.7278 11.1227 9.02308 10.2679 8.46202 9.57588C8.15259 9.19422 7.68832 8.97059 7.19698 8.97059H6.37988" stroke="#0D5EF8" stroke-width="0.545084"/>
<path d="M1.6174 0.872517H8.34797C9.09071 0.872517 9.69282 1.47463 9.69282 2.21737V6.15764C9.69282 6.90038 9.09071 7.50249 8.34797 7.50249H5.72199C5.04151 7.50249 4.42607 7.86967 4.06784 8.43151C3.78917 8.86857 3.48104 9.31191 3.21805 9.61332C3.09345 9.75613 2.99193 9.85182 2.91847 9.90251C2.7982 9.75965 2.61207 9.49721 2.39727 9.17382C2.14581 8.79524 1.87208 8.35959 1.65244 8.0018C1.46327 7.69364 1.12784 7.50249 0.763537 7.50249C0.492368 7.50249 0.272542 7.28267 0.272542 7.0115V2.21737C0.272542 1.47463 0.874654 0.872517 1.6174 0.872517Z" stroke="#0D5EF8" stroke-width="0.545084"/>
<rect x="3.18945" y="3.78906" width="0.797229" height="0.797229" fill="#0D5EF8"/>
<rect x="4.78125" y="3.78906" width="0.797229" height="0.797229" fill="#0D5EF8"/>
<rect x="6.37988" y="3.78906" width="0.797229" height="0.797229" fill="#0D5EF8"/>
</g>
<defs>
<clipPath id="clip0_1141_110">
<rect width="13" height="12" fill="white"/>
</clipPath>
</defs>
</svg>
