<svg width="15" height="15" viewBox="0 0 15 15" fill="none" xmlns="http://www.w3.org/2000/svg">
<path d="M12.1652 2.74854H12.5898C13.5992 2.74854 14.4176 3.56688 14.4176 4.57637V9.82998C14.4176 10.3973 13.9577 10.8571 13.3905 10.8571V10.8571C12.9319 10.8571 12.5311 11.1617 12.3876 11.5972C12.0457 12.6345 11.5506 13.8464 11.2643 13.56C10.9935 13.2892 10.1971 12.3232 9.563 11.5412C9.21331 11.1098 8.68863 10.8571 8.13337 10.8571H7.20996" stroke="#A9C9FF" stroke-width="1.13011"/>
<path d="M1.82783 1.96251H9.43409C10.1315 1.96251 10.6969 2.52788 10.6969 3.22529V7.67821C10.6969 8.37563 10.1315 8.94099 9.43409 8.94099H6.46646C5.60307 8.94099 4.82875 9.40647 4.38035 10.1097C4.06732 10.6007 3.72735 11.0887 3.44305 11.4145C3.40275 11.4607 3.36588 11.5009 3.33252 11.5356C3.22114 11.3842 3.08158 11.1829 2.92329 10.9446C2.64144 10.5203 2.33385 10.0308 2.0865 9.62783C1.82664 9.20451 1.36523 8.94099 0.862878 8.94099C0.698394 8.94099 0.565053 8.80765 0.565053 8.64317V3.22529C0.565053 2.52788 1.13042 1.96251 1.82783 1.96251ZM3.13216 11.7112C3.13219 11.7111 3.13346 11.7104 3.13594 11.7092C3.13338 11.7107 3.13213 11.7113 3.13216 11.7112Z" stroke="#A9C9FF" stroke-width="1.13011"/>
<rect x="3.60449" y="5.00146" width="0.900954" height="0.900954" fill="#A9C9FF"/>
<rect x="5.40332" y="5.00146" width="0.900954" height="0.900954" fill="#A9C9FF"/>
<rect x="7.20996" y="5.00146" width="0.900954" height="0.900954" fill="#A9C9FF"/>
</svg>
