<?xml version="1.0" encoding="utf-8"?>
<!-- Generator: Adobe Illustrator 23.0.3, SVG Export Plug-In . SVG Version: 6.00 Build 0)  -->
<svg version="1.1" id="Layer_1" xmlns="http://www.w3.org/2000/svg" xmlns:xlink="http://www.w3.org/1999/xlink" x="0px" y="0px"
	 viewBox="0 0 25 25" style="enable-background:new 0 0 25 25;" xml:space="preserve">
<style type="text/css">
	.st0{fill:#4386F7;}
	.st1{fill:#EE4131;}
	.st2{fill:#33A951;}
	.st3{fill:#FFBE00;}
</style>
<g>
	<path class="st0" d="M24.7,10.2c0,0,0.2,1.7,0.2,2.3c0,0.6-0.2,2.4-0.2,2.4c0,0,0,0,0,0c-0.4,2.7-1.5,5.2-3.5,7l-4.1-3
		c0.3-0.2,0.6-0.4,0.9-0.7c1-0.9,1.5-2,1.7-3.2h-6.9v-4.8h6.9H24.7z"/>
	<path class="st1" d="M21.3,3.3l-3.6,3.5c-1.3-1.1-2.9-1.9-4.7-1.9c-3.4,0-6.2,2.1-7.3,5.1L1.5,7c2.1-4.1,6.4-7,11.3-7
		C16,0,19,1.3,21.3,3.3C21.3,3.3,21.3,3.3,21.3,3.3z"/>
	<path class="st2" d="M21.2,21.9C21.2,22,21.2,22,21.2,21.9c-2.3,2-5.3,3.1-8.5,3.1c-4.9,0-9.2-2.8-11.3-6.9L5.6,15
		c1,3,3.9,5.1,7.3,5.1c1.6,0,3-0.5,4.2-1.3L21.2,21.9z"/>
	<path class="st3" d="M5.6,15l-4.1,3.1c-0.8-1.7-1.3-3.6-1.3-5.6c0-2,0.5-3.9,1.3-5.6L5.6,10c-0.3,0.8-0.4,1.6-0.4,2.5
		C5.2,13.4,5.4,14.2,5.6,15L5.6,15z"/>
</g>
</svg>
