<svg width="24" height="24" viewBox="0 0 24 24" fill="none" xmlns="http://www.w3.org/2000/svg">
<path d="M10.5002 18.5C10.5002 18.9142 10.836 19.25 11.2502 19.25C11.6644 19.25 12.0002 18.9142 12.0002 18.5V15C12.0002 14.5858 11.6644 14.25 11.2502 14.25C10.836 14.25 10.5002 14.5858 10.5002 15V18.5ZM12.8499 3.40442L12.8503 3.40471L18.6101 7.43461C19.039 7.73479 19.4592 8.23894 19.7729 8.83977C20.0865 9.44059 20.2602 10.0741 20.2602 10.6002V17.3802C20.2602 19.516 18.526 21.2502 16.3902 21.2502H5.61023C3.47656 21.2502 1.74023 19.5081 1.74023 17.3702V10.4702C1.74023 9.98352 1.89706 9.38241 2.1831 8.80148C2.46893 8.22096 2.85184 7.7255 3.24151 7.42156L3.24167 7.42143L8.2496 3.51304C8.24994 3.51278 8.25027 3.51252 8.25061 3.51226C9.50088 2.54433 11.5495 2.4933 12.8499 3.40442Z" stroke="#6B7280" stroke-width="1.5" stroke-linecap="round"/>
</svg>
