<svg id="Layer_1" data-name="Layer 1" xmlns="http://www.w3.org/2000/svg" width="50" height="50" viewBox="0 0 50 50">
  <defs>
    <style>
      .cls-1, .cls-2 {
        fill: none;
        stroke: #000;
      }

      .cls-1 {
        stroke-linecap: round;
        stroke-linejoin: round;
      }

      .cls-2 {
        stroke-miterlimit: 10;
      }
    </style>
  </defs>
  <title>invertery</title>
  <g>
    <g>
      <path class="cls-1" d="M31.53,7.62c-1.73-1.1-3.48-2.17-5.18-3.32a1.17,1.17,0,0,0-1.53,0C22.9,5.46,20.93,6.52,19,7.62"/>
      <path class="cls-1" d="M39.2,42.23c1.79-1,3.57-2,5.39-3a1.17,1.17,0,0,0,.73-1.35c-.11-2.23-.11-4.48-.15-6.72"/>
      <path class="cls-1" d="M6,31.07c-.36,2-.69,4-1.12,6a1.2,1.2,0,0,0,.58,1.43c1.8,1.33,3.53,2.76,5.29,4.15"/>
    </g>
    <g>
      <path class="cls-2" d="M9.75,26.5c0-2.65,0-5.3,0-7.95a1.68,1.68,0,0,1,.89-1.62q6.61-4,13.21-8.06a1.37,1.37,0,0,1,1.54,0c4.28,2.46,8.52,5,12.89,7.3a3.66,3.66,0,0,1,2.19,3.94c-.14,4.77-.05,9.54,0,14.32a2.07,2.07,0,0,1-1.19,2q-6.8,3.95-13.55,8a1.34,1.34,0,0,1-1.58,0q-6.66-4.09-13.36-8.13a2,2,0,0,1-1-1.91c0-2.62,0-5.24,0-7.86Z"/>
      <polyline class="cls-2" points="9.95 18.53 25.5 26.31 39.94 17.6"/>
      <line class="cls-2" x1="24.94" y1="44.64" x2="25.5" y2="26.31"/>
    </g>
  </g>
</svg>
