<svg width="17" height="17" viewBox="0 0 17 17" fill="none" xmlns="http://www.w3.org/2000/svg">
<g clip-path="url(#clip0_1129_253)">
<mask id="path-1-inside-1_1129_253" fill="white">
<rect x="1.53516" y="1.95557" width="14.3675" height="15.0445" rx="0.653068"/>
</mask>
<rect x="1.53516" y="1.95557" width="14.3675" height="15.0445" rx="0.653068" stroke="#A9C9FF" stroke-width="2" mask="url(#path-1-inside-1_1129_253)"/>
<mask id="path-2-inside-2_1129_253" fill="white">
<path fill-rule="evenodd" clip-rule="evenodd" d="M9.77956 0.654119H11.7946V2.61645H5.91699V0.654119H7.93183C8.06631 0.273032 8.42917 0 8.85569 0C9.28222 0 9.64508 0.273032 9.77956 0.654119Z"/>
</mask>
<path d="M9.77956 0.654119L9.05344 0.910348L9.23474 1.42412H9.77956V0.654119ZM11.7946 0.654119H12.5646V-0.115881H11.7946V0.654119ZM11.7946 2.61645V3.38645H12.5646V2.61645H11.7946ZM5.91699 2.61645H5.14699V3.38645H5.91699V2.61645ZM5.91699 0.654119V-0.115881H5.14699V0.654119H5.91699ZM7.93183 0.654119V1.42412H8.47665L8.65795 0.910348L7.93183 0.654119ZM9.77956 1.42412H11.7946V-0.115881H9.77956V1.42412ZM11.0246 0.654119V2.61645H12.5646V0.654119H11.0246ZM11.7946 1.84645H5.91699V3.38645H11.7946V1.84645ZM6.68699 2.61645V0.654119H5.14699V2.61645H6.68699ZM5.91699 1.42412H7.93183V-0.115881H5.91699V1.42412ZM8.65795 0.910348C8.6874 0.82687 8.76641 0.77 8.85569 0.77V-0.77C8.09193 -0.77 7.44521 -0.280806 7.20571 0.39789L8.65795 0.910348ZM8.85569 0.77C8.94498 0.77 9.02398 0.82687 9.05344 0.910348L10.5057 0.39789C10.2662 -0.280805 9.61946 -0.77 8.85569 -0.77V0.77Z" fill="#A9C9FF" mask="url(#path-2-inside-2_1129_253)"/>
<rect x="3.65643" y="4.36041" width="1.63267" height="1.6358" stroke="#A9C9FF" stroke-width="0.326534"/>
<rect x="3.65643" y="7.63104" width="1.63267" height="1.6358" stroke="#A9C9FF" stroke-width="0.326534"/>
<rect x="3.65643" y="10.9015" width="1.63267" height="1.6358" stroke="#A9C9FF" stroke-width="0.326534"/>
<line x1="6.10645" y1="5.00537" x2="13.2902" y2="5.00537" stroke="#A9C9FF"/>
<line x1="6.10645" y1="8.27588" x2="13.2902" y2="8.27588" stroke="#A9C9FF"/>
<line x1="6.10645" y1="11.5464" x2="13.2902" y2="11.5464" stroke="#A9C9FF"/>
</g>
<defs>
<clipPath id="clip0_1129_253">
<rect width="17" height="17" fill="white"/>
</clipPath>
</defs>
</svg>
