<svg width="30" height="30" viewBox="0 0 30 30" fill="none" xmlns="http://www.w3.org/2000/svg">
<g clip-path="url(#clip0_1129_253)">
<g clip-path="url(#clip1_1129_253)">
<rect x="4.9502" y="6.43567" width="22.5398" height="23.5643" rx="1.02454" fill="#DEEDFF"/>
<mask id="path-2-inside-1_1129_253" fill="white">
<rect x="3.34082" y="3.06287" width="22.5398" height="23.5643" rx="1.02454"/>
</mask>
<rect x="3.34082" y="3.06287" width="22.5398" height="23.5643" rx="1.02454" stroke="#0D5EF8" stroke-width="2.28076" mask="url(#path-2-inside-1_1129_253)"/>
<mask id="path-3-inside-2_1129_253" fill="white">
<path fill-rule="evenodd" clip-rule="evenodd" d="M16.2776 1.02456H19.4386V4.09817H10.2178V1.02456H13.3789C13.5899 0.427658 14.1591 0 14.8283 0C15.4974 0 16.0667 0.427658 16.2776 1.02456Z"/>
</mask>
<path d="M16.2776 1.02456L15.2024 1.40457L15.4712 2.16494H16.2776V1.02456ZM19.4386 1.02456H20.579V-0.11582H19.4386V1.02456ZM19.4386 4.09817V5.23855H20.579V4.09817H19.4386ZM10.2178 4.09817H9.07739V5.23855H10.2178V4.09817ZM10.2178 1.02456V-0.11582H9.07739V1.02456H10.2178ZM13.3789 1.02456V2.16494H14.1854L14.4541 1.40457L13.3789 1.02456ZM16.2776 2.16494H19.4386V-0.11582H16.2776V2.16494ZM18.2982 1.02456V4.09817H20.579V1.02456H18.2982ZM19.4386 2.95779H10.2178V5.23855H19.4386V2.95779ZM11.3582 4.09817V1.02456H9.07739V4.09817H11.3582ZM10.2178 2.16494H13.3789V-0.11582H10.2178V2.16494ZM14.4541 1.40457C14.5091 1.24906 14.6574 1.14038 14.8283 1.14038V-1.14038C13.6608 -1.14038 12.6707 -0.393745 12.3037 0.644555L14.4541 1.40457ZM14.8283 1.14038C14.9991 1.14038 15.1475 1.24906 15.2024 1.40457L17.3528 0.644555C16.9859 -0.393744 15.9957 -1.14038 14.8283 -1.14038V1.14038Z" fill="#0D5EF8" mask="url(#path-3-inside-2_1129_253)"/>
<rect x="6.66922" y="6.83011" width="2.56134" height="2.56134" stroke="#0D5EF8" stroke-width="0.512268"/>
<rect x="6.66922" y="11.9528" width="2.56134" height="2.56134" stroke="#0D5EF8" stroke-width="0.512268"/>
<rect x="6.66922" y="17.0755" width="2.56134" height="2.56134" stroke="#0D5EF8" stroke-width="0.512268"/>
<line x1="10.5127" y1="8.05298" x2="21.7826" y2="8.05298" stroke="#0D5EF8" stroke-width="1.14038"/>
<line x1="10.5127" y1="13.1754" x2="21.7826" y2="13.1754" stroke="#0D5EF8" stroke-width="1.14038"/>
<line x1="10.5127" y1="18.298" x2="21.7826" y2="18.298" stroke="#0D5EF8" stroke-width="1.14038"/>
</g>
</g>
<defs>
<clipPath id="clip0_1129_253">
<rect width="30" height="30" fill="white"/>
</clipPath>
<clipPath id="clip1_1129_253">
<rect width="30" height="30" fill="white"/>
</clipPath>
</defs>
</svg>
