<svg width="16" height="16" viewBox="0 0 16 16" fill="none" xmlns="http://www.w3.org/2000/svg">
<g clip-path="url(#clip0_1129_231)">
<rect x="2.80176" y="3.60193" width="11.8591" height="12.3981" rx="0.539048" fill="#BBDAFF"/>
<rect x="2.16607" y="2.03948" width="11.4351" height="11.9742" rx="0.327082" stroke="#0D5EF8" stroke-width="0.423934"/>
<mask id="path-3-inside-1_1129_231" fill="white">
<path fill-rule="evenodd" clip-rule="evenodd" d="M8.64669 0.54293H10.3085V2.16008H5.45703V0.54293H7.12159C7.23259 0.228896 7.53209 0.00390625 7.88414 0.00390625C8.23619 0.00390625 8.53569 0.228896 8.64669 0.54293Z"/>
</mask>
<path d="M8.64669 0.54293L8.247 0.684217L8.34691 0.966864H8.64669V0.54293ZM10.3085 0.54293H10.7324V0.118997H10.3085V0.54293ZM10.3085 2.16008V2.58401H10.7324V2.16008H10.3085ZM5.45703 2.16008H5.0331V2.58401H5.45703V2.16008ZM5.45703 0.54293V0.118997H5.0331V0.54293H5.45703ZM7.12159 0.54293V0.966864H7.42137L7.52128 0.684217L7.12159 0.54293ZM8.64669 0.966864H10.3085V0.118997H8.64669V0.966864ZM9.88453 0.54293V2.16008H10.7324V0.54293H9.88453ZM10.3085 1.73614H5.45703V2.58401H10.3085V1.73614ZM5.88097 2.16008V0.54293H5.0331V2.16008H5.88097ZM5.45703 0.966864H7.12159V0.118997H5.45703V0.966864ZM7.52128 0.684217C7.57429 0.534259 7.71733 0.42784 7.88414 0.42784V-0.420028C7.34685 -0.420028 6.89089 -0.0764678 6.72189 0.401644L7.52128 0.684217ZM7.88414 0.42784C8.05095 0.42784 8.19399 0.534259 8.247 0.684217L9.04639 0.401644C8.87739 -0.0764677 8.42143 -0.420028 7.88414 -0.420028V0.42784Z" fill="#0D5EF8" mask="url(#path-3-inside-1_1129_231)"/>
<rect x="3.70605" y="3.80957" width="1.34762" height="1.34762" stroke="#0D5EF8" stroke-width="0.269524"/>
<rect x="3.70605" y="6.50488" width="1.34762" height="1.34762" stroke="#0D5EF8" stroke-width="0.269524"/>
<rect x="3.70605" y="9.20007" width="1.34762" height="1.34762" stroke="#0D5EF8" stroke-width="0.269524"/>
<line x1="5.72852" y1="4.54084" x2="11.658" y2="4.54084" stroke="#0D5EF8" stroke-width="0.423934"/>
<line x1="5.72852" y1="7.31336" x2="11.658" y2="7.31336" stroke="#0D5EF8" stroke-width="0.269524"/>
<line x1="5.72852" y1="10.0085" x2="11.658" y2="10.0085" stroke="#0D5EF8" stroke-width="0.269524"/>
</g>
<defs>
<clipPath id="clip0_1129_231">
<rect width="16" height="16" fill="white"/>
</clipPath>
</defs>
</svg>
