<svg width="49" height="49" viewBox="0 0 49 49" fill="none" xmlns="http://www.w3.org/2000/svg">
<g clip-path="url(#clip0_1129_254)">
<rect x="7.63965" y="11.0215" width="36.327" height="37.9782" rx="1.65123" fill="#BBDAFF"/>
<rect x="5.69325" y="6.23548" width="35.0284" height="36.6796" rx="1.00192" stroke="#0D5EF8" stroke-width="1.2986"/>
<mask id="path-3-inside-1_1129_254" fill="white">
<path fill-rule="evenodd" clip-rule="evenodd" d="M20.8706 1.65126C21.2106 0.689178 22.1281 -0.00012207 23.2066 -0.00012207C24.2851 -0.00012207 25.2026 0.689178 25.5425 1.65126H30.6345V6.60493H15.7734V1.65126H20.8706Z"/>
</mask>
<path d="M20.8706 1.65126V2.94986H21.789L22.095 2.08393L20.8706 1.65126ZM25.5425 1.65126L24.3181 2.08393L24.6241 2.94986H25.5425V1.65126ZM30.6345 1.65126H31.9331V0.352651H30.6345V1.65126ZM30.6345 6.60493V7.90354H31.9331V6.60493H30.6345ZM15.7734 6.60493H14.4748V7.90354H15.7734V6.60493ZM15.7734 1.65126V0.352651H14.4748V1.65126H15.7734ZM22.095 2.08393C22.2574 1.62452 22.6956 1.29848 23.2066 1.29848V-1.29873C21.5606 -1.29873 20.1638 -0.246162 19.6462 1.21858L22.095 2.08393ZM23.2066 1.29848C23.7176 1.29848 24.1558 1.62452 24.3181 2.08393L26.7669 1.21858C26.2493 -0.246163 24.8525 -1.29873 23.2066 -1.29873V1.29848ZM25.5425 2.94986H30.6345V0.352651H25.5425V2.94986ZM29.3359 1.65126V6.60493H31.9331V1.65126H29.3359ZM30.6345 5.30633H15.7734V7.90354H30.6345V5.30633ZM17.072 6.60493V1.65126H14.4748V6.60493H17.072ZM15.7734 2.94986H20.8706V0.352651H15.7734V2.94986Z" fill="#0D5EF8" mask="url(#path-3-inside-1_1129_254)"/>
<rect x="10.4099" y="11.6576" width="4.12807" height="4.12807" stroke="#0D5EF8" stroke-width="0.825613"/>
<rect x="10.4099" y="19.9139" width="4.12807" height="4.12807" stroke="#0D5EF8" stroke-width="0.825613"/>
<rect x="10.4099" y="28.1699" width="4.12807" height="4.12807" stroke="#0D5EF8" stroke-width="0.825613"/>
<line x1="16.6064" y1="13.8976" x2="34.7699" y2="13.8976" stroke="#0D5EF8" stroke-width="1.2986"/>
<line x1="16.6064" y1="22.3905" x2="34.7699" y2="22.3905" stroke="#0D5EF8" stroke-width="0.825613"/>
<line x1="16.6064" y1="30.6464" x2="34.7699" y2="30.6464" stroke="#0D5EF8" stroke-width="0.825613"/>
</g>
<defs>
<clipPath id="clip0_1129_254">
<rect width="49" height="49" fill="white"/>
</clipPath>
</defs>
</svg>
