<svg id="Layer_1" data-name="Layer 1" xmlns="http://www.w3.org/2000/svg" width="50" height="50" viewBox="0 0 50 50">
  <defs>
    <style>
      .cls-1, .cls-2 {
        fill: none;
        stroke: #000;
        stroke-miterlimit: 10;
      }

      .cls-2 {
        stroke-linecap: round;
      }
    </style>
  </defs>
  <title>manage orders</title>
  <g>
    <g>
      <path class="cls-1" d="M41.27,42.25a.48.48,0,0,1-.29-.13l-1.79-1.26a.26.26,0,0,0-.32,0,4.67,4.67,0,0,1-1,.43.23.23,0,0,0-.19.22c-.12.71-.25,1.41-.37,2.11-.06.37-.18.48-.54.48-.67,0-1.34,0-2,0-.33,0-.46-.11-.52-.45-.12-.72-.25-1.44-.36-2.16a.21.21,0,0,0-.18-.2,5.38,5.38,0,0,1-1-.43.22.22,0,0,0-.28,0l-1.74,1.22c-.34.24-.47.23-.77-.07l-1.35-1.35c-.29-.29-.3-.43-.06-.77l1.22-1.69a.26.26,0,0,0,0-.32,4.41,4.41,0,0,1-.43-1,.25.25,0,0,0-.23-.2l-2.11-.37c-.34-.06-.46-.19-.46-.54v-2c0-.33.11-.47.43-.52q1-.18,2-.33c.23,0,.37-.09.43-.34a3.27,3.27,0,0,1,.39-.9.27.27,0,0,0,0-.34c-.41-.57-.81-1.14-1.21-1.72-.22-.32-.21-.47.06-.74l1.4-1.39c.25-.26.4-.27.7-.06.59.41,1.18.83,1.76,1.26a.23.23,0,0,0,.28,0,4.72,4.72,0,0,1,1-.42.26.26,0,0,0,.2-.25c.11-.67.23-1.35.33-2,.06-.44.17-.55.62-.55h2a.43.43,0,0,1,.49.41c.13.72.25,1.44.37,2.16a.27.27,0,0,0,.22.26,4.23,4.23,0,0,1,1,.42.24.24,0,0,0,.31,0l1.71-1.23c.34-.25.48-.24.79.07s.9.89,1.34,1.34c.29.29.3.43.06.76-.39.57-.79,1.14-1.19,1.7a.33.33,0,0,0,0,.42,5.4,5.4,0,0,1,.4,1,.2.2,0,0,0,.19.18l2.09.34c.44.07.54.17.54.62v1.95c0,.33-.12.47-.43.52l-2.16.37a.26.26,0,0,0-.24.21,5.47,5.47,0,0,1-.43,1,.21.21,0,0,0,0,.26c.43.58.85,1.17,1.27,1.76.24.32.22.47-.06.75l-1.4,1.4A.52.52,0,0,1,41.27,42.25Z"/>
      <path class="cls-1" d="M35.75,38A3.24,3.24,0,1,1,39,34.77,3.23,3.23,0,0,1,35.75,38Z"/>
    </g>
    <path class="cls-2" d="M24.93,39.8H10.48a2.9,2.9,0,0,1-2.9-2.9V7.72a2.9,2.9,0,0,1,2.9-2.9H38.56a2.9,2.9,0,0,1,2.9,2.9v16"/>
    <line class="cls-2" x1="15.93" y1="11.46" x2="32.52" y2="11.46"/>
    <line class="cls-2" x1="13.61" y1="11.5" x2="13.79" y2="11.5"/>
    <line class="cls-2" x1="15.93" y1="17.78" x2="32.52" y2="17.78"/>
    <line class="cls-2" x1="13.61" y1="17.82" x2="13.79" y2="17.82"/>
    <line class="cls-2" x1="15.93" y1="24.05" x2="26.92" y2="24.05"/>
    <line class="cls-2" x1="13.61" y1="24.18" x2="13.79" y2="24.18"/>
  </g>
</svg>
