<svg width="17" height="17" viewBox="0 0 17 17" fill="none" xmlns="http://www.w3.org/2000/svg">
<g clip-path="url(#clip0_1132_68)">
<g clip-path="url(#clip1_1132_68)">
<path d="M6.86632 4.87645C7.44833 4.87645 7.92015 4.40463 7.92015 3.82262C7.92015 3.24061 7.44833 2.7688 6.86632 2.7688C6.28431 2.7688 5.8125 3.24061 5.8125 3.82262C5.8125 4.40463 6.28431 4.87645 6.86632 4.87645Z" stroke="#A9C9FF"/>
<path d="M7.48579 0.364609C7.35672 0.311157 7.19314 0.311157 6.86595 0.311157C6.53876 0.311157 6.37518 0.311157 6.24611 0.364609C6.07406 0.43588 5.93736 0.572582 5.86609 0.744641C5.83355 0.823186 5.82082 0.91453 5.81584 1.04777C5.80852 1.24358 5.7081 1.42482 5.5384 1.52279C5.36872 1.62076 5.16155 1.6171 4.98831 1.52554C4.87043 1.46323 4.78496 1.42859 4.70067 1.41749C4.51602 1.39318 4.32929 1.44322 4.18154 1.55659C4.07072 1.64162 3.98892 1.7833 3.82533 2.06665C3.66174 2.35001 3.57994 2.49168 3.56171 2.63017C3.5374 2.81481 3.58744 3.00155 3.70081 3.14931C3.75256 3.21675 3.82528 3.27342 3.93816 3.34435C4.1041 3.44862 4.21086 3.62625 4.21085 3.8222C4.21084 4.01815 4.10408 4.19574 3.93816 4.29998C3.82527 4.37094 3.75253 4.42764 3.70078 4.49509C3.5874 4.64283 3.53736 4.82955 3.56168 5.0142C3.5799 5.15267 3.6617 5.29438 3.82529 5.57772C3.98889 5.86106 4.07069 6.00276 4.1815 6.08777C4.32925 6.20114 4.51599 6.25117 4.70064 6.22687C4.78492 6.21578 4.87039 6.18113 4.98826 6.11884C5.16151 6.02727 5.36869 6.02362 5.53839 6.12158C5.70809 6.21957 5.80852 6.40081 5.81584 6.59666C5.82082 6.72987 5.83355 6.82122 5.86609 6.89977C5.93736 7.07181 6.07406 7.20853 6.24611 7.2798C6.37518 7.33324 6.53876 7.33324 6.86595 7.33324C7.19314 7.33324 7.35672 7.33324 7.48579 7.2798C7.65783 7.20853 7.79455 7.07181 7.86579 6.89977C7.89834 6.82122 7.91108 6.72987 7.91607 6.59662C7.92337 6.40081 8.02379 6.21957 8.19347 6.12158C8.36316 6.02358 8.57035 6.02727 8.74362 6.11884C8.86149 6.18113 8.94694 6.21574 9.03121 6.22684C9.21585 6.25117 9.40261 6.20114 9.55035 6.08777C9.66116 6.00273 9.74297 5.86106 9.90655 5.57768C10.0702 5.29434 10.152 5.15267 10.1702 5.0142C10.1945 4.82955 10.1445 4.6428 10.0311 4.49505C9.97933 4.42761 9.90658 4.3709 9.7937 4.29998C9.62781 4.19574 9.52103 4.01811 9.52103 3.82216C9.52103 3.62621 9.62781 3.44866 9.7937 3.34442C9.90662 3.27346 9.97937 3.21679 10.0311 3.14931C10.1445 3.00157 10.1945 2.81483 10.1702 2.63019C10.152 2.49171 10.0702 2.35003 9.90658 2.06668C9.743 1.78333 9.6612 1.64165 9.55039 1.55662C9.40264 1.44324 9.21589 1.39321 9.03124 1.41752C8.94698 1.42861 8.86152 1.46326 8.74362 1.52556C8.57038 1.61712 8.3632 1.62078 8.19351 1.5228C8.02379 1.42483 7.92337 1.24357 7.91607 1.04775C7.91108 0.914523 7.89834 0.823183 7.86579 0.744641C7.79455 0.572582 7.65783 0.43588 7.48579 0.364609Z" stroke="#A9C9FF"/>
</g>
<path d="M13.4089 5.03344H1.02176L2.70706 10.932H12.5014M4.56089 14.3026H11.9762L13.6615 3.34814H16.1895" stroke="#A9C9FF" stroke-linecap="round" stroke-linejoin="round"/>
<circle cx="5.23564" cy="16.1568" r="0.5" stroke="#A9C9FF" stroke-width="0.686117"/>
<circle cx="11.303" cy="16.1568" r="0.5" stroke="#A9C9FF" stroke-width="0.686117"/>
</g>
<defs>
<clipPath id="clip0_1132_68">
<rect width="17" height="17" fill="white"/>
</clipPath>
<clipPath id="clip1_1132_68">
<rect width="8.4265" height="8.4265" fill="white" transform="translate(2.65332 -0.390991)"/>
</clipPath>
</defs>
</svg>
