<svg width="18" height="17" viewBox="0 0 18 17" fill="none" xmlns="http://www.w3.org/2000/svg">
<g clip-path="url(#clip0_1132_47)">
<path d="M12.0977 12.6695L14.4258 9.3799L15.2165 9.93998M13.5856 10.566L14.3764 11.1261M11.4648 15.4464C12.3041 15.3031 12.8683 14.5065 12.725 13.6672C12.5817 12.8279 11.7851 12.2637 10.9458 12.407C10.1065 12.5504 9.54233 13.3469 9.68566 14.1862C9.82898 15.0255 10.6256 15.5897 11.4648 15.4464Z" stroke="#A9C9FF" stroke-linecap="round" stroke-linejoin="round"/>
<path d="M12.0245 3.43166C12.0245 5.05077 10.7119 6.36332 9.09279 6.36332C7.47368 6.36332 6.16113 5.05077 6.16113 3.43166C6.16113 1.81255 7.47368 0.5 9.09279 0.5C10.7119 0.5 12.0245 1.81255 12.0245 3.43166Z" stroke="#A9C9FF"/>
<path d="M6.57895 15.4425H3.11141C2.94628 13.0651 3.5077 8.20845 7.07432 7.8009C10.6409 7.39334 12.1929 8.64997 12.523 9.32923" stroke="#A9C9FF"/>
<path d="M8.66188 15.4424H5.65918" stroke="#A9C9FF"/>
</g>
<defs>
<clipPath id="clip0_1132_47">
<rect width="17" height="17" fill="white" transform="translate(0.5)"/>
</clipPath>
</defs>
</svg>
