<svg id="Layer_1" data-name="Layer 1" xmlns="http://www.w3.org/2000/svg" width="50" height="50" viewBox="0 0 50 50">
  <defs>
    <style>
      .cls-1 {
        fill: none;
        stroke: #000;
        stroke-linecap: round;
        stroke-miterlimit: 10;
      }
    </style>
  </defs>
  <title>pos</title>
  <g>
    <path class="cls-1" d="M9,21a6,6,0,0,1-6-6H3A6,6,0,0,1,9,9H41a6,6,0,0,1,6,6h0a6,6,0,0,1-6,6"/>
    <line class="cls-1" x1="6.5" y1="16.5" x2="42.5" y2="16.5"/>
    <path class="cls-1" d="M9.5,16.5h31a0,0,0,0,1,0,0V37.84a3.66,3.66,0,0,1-3.66,3.66H13.16A3.66,3.66,0,0,1,9.5,37.84V16.5A0,0,0,0,1,9.5,16.5Z"/>
    <g>
      <polyline class="cls-1" points="18.5 28.5 24.5 35 31 28.5"/>
      <line class="cls-1" x1="24.5" y1="34" x2="24.5" y2="23"/>
    </g>
  </g>
</svg>
