<?xml version="1.0" encoding="UTF-8"?>
<svg version="1.1" xmlns="http://www.w3.org/2000/svg" width="512" height="512">
<path d="M0 0 C0.7031987 0.0028299 1.4063974 0.00565979 2.13090515 0.00857544 C4.36218767 0.01971099 6.59305892 0.04480253 8.82421875 0.0703125 C10.34309313 0.0803509 11.86197385 0.08947524 13.38085938 0.09765625 C17.09142919 0.11792151 20.80111723 0.15708077 24.51171875 0.1953125 C24.51171875 9.4353125 24.51171875 18.6753125 24.51171875 28.1953125 C19.56171875 28.1953125 14.61171875 28.1953125 9.51171875 28.1953125 C9.51171875 35.4553125 9.51171875 42.7153125 9.51171875 50.1953125 C74.52171875 50.1953125 139.53171875 50.1953125 206.51171875 50.1953125 C206.51171875 42.9353125 206.51171875 35.6753125 206.51171875 28.1953125 C201.56171875 28.1953125 196.61171875 28.1953125 191.51171875 28.1953125 C191.51171875 18.9553125 191.51171875 9.7153125 191.51171875 0.1953125 C195.88761112 0.07961617 200.25806561 -0.01961361 204.63427734 -0.0793457 C206.11818554 -0.10427588 207.6019737 -0.13823375 209.08544922 -0.18188477 C219.09743847 -0.46880961 227.3109151 0.0053738 235.33129883 6.71826172 C243.84788608 15.48030968 242.9424333 27.81071803 242.89266968 39.16822815 C242.89612983 40.89048923 242.9008968 42.6127481 242.90685141 44.33500236 C242.91934176 49.04955035 242.91319998 53.76391548 242.90389276 58.47846401 C242.89709461 63.56986326 242.90758726 68.66123146 242.91583252 73.75262451 C242.92916357 83.71924513 242.92629498 93.68579792 242.9175946 103.65242118 C242.91081638 111.75279814 242.90990193 119.8531561 242.91316605 127.95353508 C242.91362575 129.10690731 242.91408544 130.26027954 242.91455907 131.44860245 C242.91551826 133.79172453 242.9164909 136.13484661 242.91747685 138.47796869 C242.9260288 160.44256124 242.91619945 182.40711621 242.90007575 204.3717026 C242.88667097 223.21583813 242.88900237 242.05991821 242.90283203 260.90405273 C242.91888819 282.79220347 242.92520672 304.68032129 242.91599524 326.56847709 C242.9150396 328.90261995 242.91409649 331.23676282 242.91316605 333.57090569 C242.91270322 334.71932338 242.91224039 335.86774108 242.91176354 337.05095931 C242.9091739 345.14154584 242.91354407 353.23211148 242.92060471 361.32269478 C242.9290202 371.18240147 242.92673839 381.04203652 242.91076247 390.90173502 C242.90288076 395.93169644 242.89978657 400.96153842 242.90970993 405.99149895 C242.91865917 410.59735711 242.91372012 415.20298528 242.89777727 419.80882262 C242.89443048 421.47354267 242.89612126 423.1382822 242.90340464 424.80298967 C242.98524175 445.06455105 242.98524175 445.06455105 236.38671875 452.5078125 C235.60941406 453.43013672 235.60941406 453.43013672 234.81640625 454.37109375 C228.37631443 459.46859015 221.74696809 460.78591083 213.71360779 460.70324707 C212.7682619 460.70948703 211.822916 460.715727 210.84892327 460.72215605 C207.70297833 460.73802325 204.55781497 460.72550624 201.41186523 460.71289062 C199.14768016 460.71831448 196.88349862 460.72543861 194.61932373 460.73413086 C188.48512928 460.75233457 182.35120454 460.74530897 176.21700549 460.73261452 C169.79188493 460.72247289 163.36678714 460.73188332 156.94166565 460.73815918 C145.46329756 460.74589718 133.98506714 460.73348408 122.50672061 460.71312183 C112.10931888 460.69524795 101.71209579 460.69836037 91.31469727 460.71679688 C79.2247611 460.73822468 67.13496505 460.7461598 55.04500633 460.73434782 C48.65087061 460.72811626 42.25685782 460.72726826 35.86273003 460.74049377 C29.85191996 460.7520586 23.84144692 460.74401449 17.83067322 460.72091675 C15.62644065 460.71563335 13.42217966 460.71713708 11.21795845 460.72596741 C8.20587302 460.73692054 5.19486323 460.72316141 2.18284607 460.70324707 C0.8787952 460.7166314 0.8787952 460.7166314 -0.45160013 460.73028612 C-7.46619228 460.64051272 -12.6487687 458.67425203 -17.94921875 454.046875 C-18.58085937 453.31210937 -19.2125 452.57734375 -19.86328125 451.8203125 C-20.51039062 451.09070313 -21.1575 450.36109375 -21.82421875 449.609375 C-25.25710882 444.62926686 -25.73898453 439.83245131 -25.74555016 433.89163494 C-25.75080927 432.81655435 -25.75080927 432.81655435 -25.75617462 431.71975496 C-25.76548004 429.31762422 -25.76056757 426.91573636 -25.75570679 424.51359558 C-25.75944348 422.77416372 -25.76404507 421.03473354 -25.76943743 419.29530603 C-25.78168046 414.51475426 -25.78140543 409.7342724 -25.77904868 404.95370853 C-25.77864085 399.79816347 -25.78967646 394.64264092 -25.79916382 389.48710632 C-25.81578178 379.38626961 -25.82127372 369.28545623 -25.82238857 359.18460699 C-25.82333864 350.97496423 -25.82744687 342.76532918 -25.83378983 334.55568886 C-25.85140417 311.28428782 -25.86062836 288.01290523 -25.85912888 264.74149748 C-25.85904897 263.48674228 -25.85896905 262.23198707 -25.85888672 260.93920898 C-25.85880496 259.68292335 -25.8587232 258.42663772 -25.85863896 257.13228283 C-25.85782593 236.76915425 -25.87696725 216.40609962 -25.90516345 196.04299244 C-25.9338809 175.13865435 -25.94770438 154.23435234 -25.9459759 133.32999402 C-25.94531162 121.59202122 -25.95082062 109.85412594 -25.972332 98.11617088 C-25.99052875 88.12277743 -25.99490347 78.12949665 -25.98131315 68.13609382 C-25.97477602 63.03726234 -25.97469332 57.93864712 -25.99201965 52.83983612 C-26.00772223 48.17085496 -26.00491548 43.50226203 -25.98745139 38.83329049 C-25.9843753 37.1455668 -25.98803677 35.45781434 -25.99917154 33.77012458 C-26.05974863 23.93603983 -25.98892451 15.46887482 -19.3046875 7.63671875 C-18.18900391 6.70666016 -18.18900391 6.70666016 -17.05078125 5.7578125 C-15.93896484 4.80068359 -15.93896484 4.80068359 -14.8046875 3.82421875 C-9.92716248 0.39432342 -5.91880252 -0.04716177 0 0 Z M7.16906738 85.77758789 C4.85749404 90.54443112 4.95166285 94.64542262 4.99414062 99.87890625 C4.98713135 100.94303741 4.98012207 102.00716858 4.97290039 103.10354614 C4.9553261 106.61356871 4.96694185 110.12278203 4.98046875 113.6328125 C4.97777369 116.07609207 4.97389116 118.51937059 4.96887207 120.96264648 C4.96297776 126.08034488 4.97153826 131.1977638 4.99023438 136.31542969 C5.01302337 142.87275947 4.9999 149.42943435 4.97594452 155.98674011 C4.96148505 161.03109667 4.96609333 166.07529817 4.97645569 171.11965942 C4.97912254 173.53736448 4.97585473 175.95508365 4.96653748 178.37277222 C4.95636998 181.7528 4.97187739 185.1317697 4.99414062 188.51171875 C4.9860437 189.50930206 4.97794678 190.50688538 4.96960449 191.53469849 C5.05564495 198.5917828 6.48706116 201.6867097 11.07421875 207.0078125 C14.51881852 209.85335144 18.6817311 209.34357578 22.89338684 209.34248352 C23.65125746 209.34616021 24.40912808 209.3498369 25.18996447 209.353625 C27.73708274 209.36466447 30.28416021 209.3685061 32.83129883 209.37231445 C34.65449656 209.37857883 36.47769301 209.38522561 38.30088806 209.39222717 C43.25962838 209.40963748 48.21835905 209.42018874 53.17712235 209.4284327 C56.27427415 209.43358215 59.37142294 209.43965787 62.46857262 209.44594383 C72.15630657 209.46499487 81.84403289 209.47922694 91.53178197 209.4875558 C102.71963141 209.49733289 113.90728324 209.52366513 125.09506303 209.56405669 C133.73973346 209.59419745 142.38434717 209.60902268 151.02906913 209.61233681 C156.19366607 209.61468935 161.35805189 209.62367652 166.52259254 209.64879799 C171.38092628 209.67204841 176.23890941 209.67632414 181.09728432 209.66603661 C182.8798794 209.66554042 184.66249157 209.6718852 186.44503403 209.68559265 C188.8801437 209.70326982 191.31398939 209.69622683 193.74909973 209.68305969 C194.45329271 209.69402894 195.15748568 209.70499818 195.88301784 209.71629983 C200.86592755 209.65131912 203.69265909 208.34395083 207.51171875 205.1953125 C211.96728267 199.72577633 212.08695659 193.44763776 212.02929688 186.68359375 C212.03630615 185.6613974 212.04331543 184.63920105 212.05053711 183.58602905 C212.06805993 180.22634251 212.05651411 176.86750676 212.04296875 173.5078125 C212.04566529 171.1618636 212.04954906 168.81591579 212.05456543 166.4699707 C212.06045277 161.56092657 212.0519218 156.6521742 212.03320312 151.74316406 C212.0104145 145.46184564 212.02354162 139.18121096 212.04749298 132.8999176 C212.06197136 128.05793133 212.05733551 123.21610621 212.04698181 118.37411499 C212.04432019 116.05854206 212.04756434 113.74295433 212.05690002 111.42739868 C212.06709881 108.18688391 212.05151677 104.94746477 212.02929688 101.70703125 C212.0373938 100.75718353 212.04549072 99.80733582 212.05383301 98.82870483 C211.98112474 93.08299871 211.41128468 87.67883893 207.51171875 83.1953125 C202.52884708 79.73894668 198.77874789 78.60920641 192.68699646 78.68737793 C191.92979169 78.68113797 191.17258693 78.674898 190.39243656 78.66846895 C187.87124628 78.6525948 185.35103035 78.66512062 182.82983398 78.67773438 C181.01589395 78.6723108 179.20195832 78.66518682 177.38803101 78.65649414 C172.47279991 78.63828714 167.55790533 78.64531716 162.64266849 78.65801048 C157.49517341 78.66815017 152.3477068 78.65874225 147.20021057 78.65246582 C138.55765621 78.6451929 129.91523866 78.6547685 121.27270508 78.67382812 C111.28363222 78.69560304 101.29488586 78.68853953 91.30582088 78.6665225 C82.72473687 78.64836662 74.1437511 78.64581091 65.56265408 78.65627718 C60.43951094 78.66251017 55.31652124 78.66335289 50.19338799 78.65013123 C45.37762932 78.6385704 40.56229146 78.64660276 35.74657822 78.66970825 C33.98012427 78.67499379 32.21363486 78.6734842 30.44719505 78.66465759 C28.03413901 78.65371224 25.62242794 78.6674521 23.2094574 78.68737793 C22.51188385 78.67845504 21.8143103 78.66953216 21.09559816 78.66033888 C14.85749527 78.76013004 11.26579745 81.26181342 7.16906738 85.77758789 Z M9.9375 255.9140625 C5.84272823 261.45197733 4.73661994 266.36337009 5.51171875 273.1953125 C7.16714635 278.78985998 10.00085154 282.11356233 14.828125 285.28515625 C19.76421472 287.95362238 25.37422177 288.12369842 30.703125 286.546875 C35.82211494 284.27392691 38.85976024 281.10086665 41.51171875 276.1953125 C43.34501316 270.69542927 43.32091434 265.2866953 40.94921875 259.9453125 C38.12984006 254.90063848 33.92353791 251.99925222 28.51171875 250.1953125 C21.36637447 249.33561625 14.96150969 250.42879138 9.9375 255.9140625 Z M64.51171875 258.1953125 C61.27583646 263.10492701 60.76042945 267.47316384 61.51171875 273.1953125 C63.63002 278.99276856 67.14957236 282.63844329 72.26171875 286.0078125 C78.05319008 288.12392702 83.18325395 288.09194163 88.82421875 285.5078125 C93.55398718 282.84673006 96.39873776 279.15234806 98.51171875 274.1953125 C99.48411478 267.60349096 98.946031 262.30594993 95.01171875 256.8515625 C91.60701094 253.09219762 87.56308379 250.49754294 82.4609375 249.9921875 C74.51740229 249.82755465 69.77617896 252.07715604 64.51171875 258.1953125 Z M120.76953125 258.4375 C117.56582385 262.91473083 116.9561677 266.73239389 117.51171875 272.1953125 C119.50796697 278.3633609 123.15839352 282.60572783 128.51171875 286.1953125 C133.51817025 287.86412967 138.8413589 288.29166126 143.8046875 286.25390625 C149.36945941 282.92339548 153.11133171 279.28437201 154.94921875 272.9453125 C156.03968962 267.09376791 154.49207636 262.3959609 151.40234375 257.40234375 C148.62894568 253.75550538 145.81945434 251.65831704 141.51171875 250.1953125 C132.35031168 249.11925816 126.55385366 251.19952589 120.76953125 258.4375 Z M177.69921875 257.0703125 C173.93251827 262.45131318 173.04607052 266.60885094 173.97265625 273.01953125 C175.34734126 278.56807873 178.96738472 282.01427868 183.51171875 285.1953125 C188.072003 287.84909136 192.35232897 287.95450199 197.51171875 287.1953125 C203.72412684 284.62977879 207.93309966 280.50289535 210.82421875 274.4453125 C212.0337181 268.72767921 211.49576193 264.05796566 208.76171875 258.8828125 C205.11843337 254.53111052 200.95835366 250.69181267 195.1796875 249.859375 C187.59382052 249.73991253 182.92159476 251.30140877 177.69921875 257.0703125 Z M7.640625 325.51171875 C4.69345563 329.90697827 4.84300811 335.12363066 5.51171875 340.1953125 C7.56849111 345.20496137 10.8034352 349.47497089 15.51171875 352.1953125 C21.46991002 354.30005142 26.54162398 354.73268193 32.46875 352.3828125 C37.16895008 349.65076504 40.45511321 345.17790683 42.51171875 340.1953125 C43.26023802 334.30436864 43.00404897 329.1521683 39.51171875 324.1953125 C34.93001388 319.48916627 30.83303377 316.57131043 24.19921875 315.8203125 C16.83347806 316.56937088 12.25414467 319.86738542 7.640625 325.51171875 Z M66.13671875 322.5703125 C62.55875385 327.22750051 61.01763785 331.0632576 61.19921875 337.078125 C61.98193832 342.38105008 64.58151219 346.17651484 68.13671875 350.0703125 C73.16275988 353.23485692 77.95161242 354.60118781 83.91015625 353.921875 C90.17994242 352.27418375 93.93067339 348.48161755 97.51171875 343.1953125 C99.29964919 337.83152117 99.20227072 332.30758912 97.44921875 326.9453125 C93.9868727 322.03101488 89.46081799 317.72072256 83.51171875 316.1953125 C76.6299834 315.43067524 70.74896805 317.40684316 66.13671875 322.5703125 Z M120.69921875 324.4375 C117.61297853 329.00594769 117.03795482 332.69965089 117.51171875 338.1953125 C119.41247541 343.70750681 121.46503373 348.49068411 126.7109375 351.42578125 C132.45710786 354.00407821 136.40286285 354.82434074 142.51171875 353.1953125 C147.7269091 350.43432938 151.84882067 346.52110866 154.51171875 341.1953125 C155.42264397 333.80413442 155.03767222 328.05550839 150.421875 322.04296875 C146.40652567 318.15900099 141.90623441 316.53738617 136.44921875 315.7578125 C129.50800377 316.79161048 125.04197079 318.79664273 120.69921875 324.4375 Z M177.51171875 323.1953125 C174.26651437 328.31552385 172.77941779 332.9644843 173.84375 338.9921875 C175.45259673 344.29855918 178.09331729 348.62322301 182.82421875 351.6328125 C188.1312031 354.20589582 193.04928278 354.92884407 198.69921875 353.0703125 C204.19533678 350.69943805 208.00036463 346.59472385 210.51171875 341.1953125 C211.93763606 334.98238709 211.46042361 330.85003046 208.51171875 325.1953125 C205.51818543 320.70501253 202.58372261 317.87449703 197.21484375 316.6875 C189.35119105 315.56752522 183.16512541 317.38911106 177.51171875 323.1953125 Z M8.07421875 391.3203125 C5.33149402 396.366926 5.00791985 400.5663286 5.51171875 406.1953125 C7.35983721 411.9706827 11.62448335 415.79019455 16.51171875 419.1953125 C21.51745547 420.86707572 26.14164469 420.64412987 31.13671875 419.0078125 C36.77660176 415.97898644 40.30582139 412.23250529 42.51171875 406.1953125 C43.49755409 399.72727089 42.26404214 394.55057015 38.51171875 389.1953125 C33.11443453 384.06789249 28.67112092 382.66950672 21.3359375 382.81640625 C15.33921235 383.62094614 11.71148301 386.65715319 8.07421875 391.3203125 Z M66.51171875 388.1953125 C62.75665087 393.00950209 61.13237753 396.84263218 61.234375 403.0078125 C61.90307072 408.28203226 64.49340554 412.58469931 68.44921875 416.0703125 C73.6781752 419.698568 78.10322355 421.10742734 84.51171875 420.1953125 C90.55359186 418.50630857 94.23243763 415.08369677 97.44140625 409.76171875 C99.58537872 404.62087966 99.59066398 399.38419506 97.80859375 394.1171875 C95.17002799 388.97422035 90.99366641 385.02262839 85.51171875 383.1953125 C77.93139174 382.33808651 72.28546505 382.96625925 66.51171875 388.1953125 Z M121.51171875 389.1953125 C118.17377175 394.17516857 116.63948726 399.19872102 117.51171875 405.1953125 C119.84931654 412.03738244 123.56419611 416.01378683 129.88671875 419.5078125 C136.29242689 421.18549796 141.06565155 420.59091887 146.7578125 417.3828125 C151.43355064 414.21705661 153.51598141 409.86228258 155.08984375 404.58984375 C156.00474638 399.39692417 154.90696052 395.27211738 151.984375 390.921875 C148.148146 386.27139171 145.02107622 383.74830216 138.93359375 382.7890625 C131.66022788 382.53385668 126.70909694 383.93323666 121.51171875 389.1953125 Z M177.76171875 390.0703125 C173.90886714 395.42149529 173.04387643 399.59367086 173.97265625 406.01953125 C175.33988711 411.53799205 178.94575718 415.07709484 183.51171875 418.1953125 C187.68405203 420.45062779 191.85355574 420.88286424 196.51171875 420.1953125 C202.38695953 418.28748523 206.11071338 415.29682056 209.51171875 410.1953125 C211.63017124 404.99547457 212.01247512 400.56298127 210.51171875 395.1953125 C207.60144931 389.6981369 203.51427868 385.19616581 197.51171875 383.1953125 C188.64032075 382.34577517 184.03859796 383.5081206 177.76171875 390.0703125 Z " fill="#000000" transform="translate(39.48828125,51.8046875)"/>
<path d="M0 0 C67.98 0 135.96 0 206 0 C206.0825 21.264375 206.165 42.52875 206.25 64.4375 C206.28641602 71.14247803 206.32283203 77.84745605 206.36035156 84.75561523 C206.37841797 92.96691895 206.37841797 92.96691895 206.3817749 96.81556702 C206.38790276 99.49380938 206.4004294 102.17128753 206.42230225 104.84938049 C206.45506063 108.91462168 206.45562139 112.97930486 206.45410156 117.04467773 C206.468494 118.23018188 206.48288643 119.41568602 206.497715 120.63711452 C206.44893156 130.41105836 204.01690384 137.99003297 197.09719658 145.06862354 C188.28858923 153.1807562 178.13156457 152.68997946 166.88232422 152.56762695 C165.05821268 152.56621472 163.2340983 152.56701189 161.4099884 152.56983948 C156.48279959 152.57126819 151.55622515 152.54196696 146.62917852 152.50696969 C141.47092689 152.47561501 136.31265962 152.47276828 131.15432739 152.46684265 C121.39742628 152.45133094 111.64080685 152.41033868 101.88402951 152.3600952 C88.69187322 152.29364229 75.49963936 152.26674562 62.30735779 152.23758411 C41.53802774 152.19063487 20.76929195 152.09100469 0 152 C0 101.84 0 51.68 0 0 Z M14 27 C14 33.6 14 40.2 14 47 C17.3 47 20.6 47 24 47 C24 40.4 24 33.8 24 27 C20.7 27 17.4 27 14 27 Z M38 27 C38 33.6 38 40.2 38 47 C41.63 47 45.26 47 49 47 C49 40.4 49 33.8 49 27 C45.37 27 41.74 27 38 27 Z M63 27 C63 33.6 63 40.2 63 47 C66.3 47 69.6 47 73 47 C73 40.4 73 33.8 73 27 C69.7 27 66.4 27 63 27 Z M88 27 C88 33.6 88 40.2 88 47 C91.3 47 94.6 47 98 47 C98 40.4 98 33.8 98 27 C94.7 27 91.4 27 88 27 Z M119 75 C118.28209638 78.07896752 118.29901436 81.06812212 118.3359375 84.21875 C118.33115387 85.11364136 118.32637024 86.00853271 118.32144165 86.93054199 C118.31804349 88.82008627 118.32724018 90.7096894 118.34814453 92.59912109 C118.3749129 95.4905919 118.34839566 98.37818111 118.31640625 101.26953125 C118.31971037 103.1067794 118.32611664 104.94402513 118.3359375 106.78125 C118.32581635 107.64488159 118.31569519 108.50851318 118.30526733 109.39831543 C118.38281452 113.37210067 118.49316052 115.35634723 121.00244141 118.54296875 C124.99525305 120.48376529 128.23805171 120.57622942 132.625 120.53125 C133.4495166 120.5350769 134.2740332 120.53890381 135.12353516 120.54284668 C136.86166611 120.54556097 138.59983825 120.53823358 140.33789062 120.52148438 C142.99181558 120.50006605 145.6430338 120.52130055 148.296875 120.546875 C149.98958928 120.54423164 151.68230189 120.53910647 153.375 120.53125 C154.55956787 120.54339539 154.55956787 120.54339539 155.76806641 120.55578613 C159.39938502 120.49426834 161.68824252 120.15153679 164.99755859 118.54296875 C167.97430158 114.76270114 167.71903043 111.47162765 167.6640625 106.78125 C167.66884613 105.88635864 167.67362976 104.99146729 167.67855835 104.06945801 C167.68195651 102.17991373 167.67275982 100.2903106 167.65185547 98.40087891 C167.6250871 95.5094081 167.65160434 92.62181889 167.68359375 89.73046875 C167.68028963 87.8932206 167.67388336 86.05597487 167.6640625 84.21875 C167.67418365 83.35511841 167.68430481 82.49148682 167.69473267 81.60168457 C167.61718548 77.62789933 167.50683948 75.64365277 164.99755859 72.45703125 C161.00474695 70.51623471 157.76194829 70.42377058 153.375 70.46875 C152.5504834 70.4649231 151.7259668 70.46109619 150.87646484 70.45715332 C149.13833389 70.45443903 147.40016175 70.46176642 145.66210938 70.47851562 C143.00818442 70.49993395 140.3569662 70.47869945 137.703125 70.453125 C136.01041072 70.45576836 134.31769811 70.46089353 132.625 70.46875 C131.83528809 70.46065308 131.04557617 70.45255615 130.23193359 70.44421387 C125.34910647 70.52693334 122.19593448 70.94137362 119 75 Z " fill="#000000" transform="translate(292,253)"/>
<path d="M0 0 C1.20030853 -0.00412399 2.40061707 -0.00824799 3.63729858 -0.01249695 C4.95072235 -0.00171112 6.26414612 0.00907471 7.61737061 0.02018738 C9.01695741 0.02103376 10.41654556 0.02055828 11.81613159 0.01885986 C15.61341101 0.01799892 19.41040629 0.03564048 23.20761967 0.05658174 C27.17676924 0.07533215 31.14592528 0.07709768 35.1151123 0.08065796 C42.63031019 0.08998324 50.1453772 0.11460353 57.66051745 0.14470643 C66.21665628 0.17823542 74.77280134 0.19473267 83.32898951 0.20979273 C100.92877148 0.24115269 118.52843161 0.29392256 136.12811279 0.36076355 C135.64297714 1.82728111 135.64297714 1.82728111 135.14804077 3.32342529 C133.94383512 7.56248151 133.82161667 11.57331191 133.80926514 15.95817566 C133.79911188 16.80155519 133.78895863 17.64493471 133.7784977 18.51387119 C133.74806004 21.221946 133.73076273 23.92991677 133.71405029 26.6381073 C133.69709953 28.31882107 133.67928111 29.99952632 133.6605835 31.68022156 C133.59759361 37.88613787 133.55135373 44.09221507 133.50311279 50.29826355 C133.37936279 64.17888855 133.25561279 78.05951355 133.12811279 92.36076355 C84.94811279 92.36076355 36.76811279 92.36076355 -12.87188721 92.36076355 C-12.93376221 78.60388855 -12.99563721 64.84701355 -13.05938721 50.67326355 C-13.08669922 46.33339294 -13.11401123 41.99352234 -13.14215088 37.5221405 C-13.15570068 32.21269226 -13.15570068 32.21269226 -13.15821838 29.72518921 C-13.16281781 27.99205209 -13.17335395 26.25892443 -13.18861389 24.52584839 C-13.21060058 21.89683923 -13.21360435 19.26841544 -13.21246338 16.639328 C-13.2232577 15.8703761 -13.23405203 15.1014242 -13.24517345 14.30917072 C-13.21898676 9.79613855 -12.70384185 6.91577364 -9.87188721 3.36076355 C-6.60943838 0.33810751 -4.39841744 -0.01165658 0 0 Z " fill="#000000" transform="translate(87.87188720703125,-0.3607635498046875)"/>
<path d="M0 0 C23.8524572 -0.06773898 47.70483644 -0.12299465 71.55736542 -0.15543652 C82.6326797 -0.17090068 93.70792995 -0.19198165 104.78320312 -0.22631836 C114.43721195 -0.25623443 124.0911744 -0.27557828 133.74522829 -0.28226548 C138.85624719 -0.28617398 143.9671334 -0.29535025 149.07810974 -0.31719017 C153.89121345 -0.33759012 158.70413011 -0.34382668 163.51727295 -0.33932304 C165.28128578 -0.34014667 167.04530502 -0.34609137 168.8092804 -0.35761642 C171.2239518 -0.37261568 173.63792359 -0.36892688 176.0526123 -0.36076355 C176.74524406 -0.36950207 177.43787581 -0.3782406 178.15149641 -0.38724393 C186.74513788 -0.30909936 192.8465631 3.03980551 199.015625 8.8046875 C206.99145063 17.62833712 206 26.01965991 206 38 C138.02 38 70.04 38 0 38 C0 25.46 0 12.92 0 0 Z " fill="#000000" transform="translate(292,159)"/>
<path d="M0 0 C67.98 0 135.96 0 206 0 C206 11.22 206 22.44 206 34 C138.02 34 70.04 34 0 34 C0 22.78 0 11.56 0 0 Z " fill="#000000" transform="translate(292,208)"/>
<path d="M0 0 C3.65929009 1.64423169 5.54730346 3.94577518 7.140625 7.65625 C8.17235557 11.67061984 8.22101229 15.25836681 8.125 19.375 C8.08375 21.89125 8.0425 24.4075 8 27 C-1.24 27 -10.48 27 -20 27 C-20.061875 24.504375 -20.12375 22.00875 -20.1875 19.4375 C-20.21481201 18.66591553 -20.24212402 17.89433105 -20.27026367 17.09936523 C-20.34298219 10.9636422 -18.95133406 6.45490414 -15.0625 1.5625 C-10.16274138 -0.93737685 -5.3781945 -0.83693149 0 0 Z " fill="#000000" transform="translate(250,0)"/>
</svg>
