<svg id="Layer_1" data-name="Layer 1" xmlns="http://www.w3.org/2000/svg" width="50" height="50" viewBox="0 0 50 50">
  <defs>
    <style>
      .cls-1, .cls-2 {
        fill: none;
        stroke: #000;
        stroke-miterlimit: 10;
      }

      .cls-1 {
        stroke-linecap: round;
      }
    </style>
  </defs>
  <title>manage products</title>
  <g>
    <polyline class="cls-1" points="13.07 18.73 13.07 18.73 39.94 18.53 44.37 18.46 38.89 36.18 16.93 36.18 10.28 10.79 1.31 10.79"/>
    <g>
      <circle class="cls-2" cx="21.48" cy="45.16" r="3.11"/>
      <circle class="cls-2" cx="33.07" cy="45.16" r="3.11"/>
    </g>
    <path class="cls-1" d="M43.34,18.12a17,17,0,0,0-.07-3.27.75.75,0,0,0-.62-.72c-.56-.16-1.09-.39-1.66-.52-.75-.18-1.33-.49-1.48-1.33a1.7,1.7,0,0,0-.24-.51.66.66,0,0,1,0-.7c.38-.78.72-1.57,1.11-2.33a.74.74,0,0,0-.12-.9,15.89,15.89,0,0,0-2.42-2.36.74.74,0,0,0-.9-.09c-.66.36-1.34.68-2,1.05a1.1,1.1,0,0,1-1.22,0,2.94,2.94,0,0,0-.82-.33.79.79,0,0,1-.58-.55C32,4.8,31.72,4,31.44,3.18a.65.65,0,0,0-.6-.5,14.54,14.54,0,0,0-3.61,0,.64.64,0,0,0-.54.51c-.21.66-.47,1.3-.63,2A1.41,1.41,0,0,1,24.9,6.44a2.27,2.27,0,0,0-.6.26.67.67,0,0,1-.71,0c-.74-.36-1.51-.69-2.25-1.07a.85.85,0,0,0-1.06.15,21.32,21.32,0,0,0-2.15,2.1.77.77,0,0,0-.1,1c.41.69.78,1.39,1.17,2.09a.68.68,0,0,1,.06.66c-.22.5-.41,1-.59,1.54a.76.76,0,0,1-.53.53c-.8.24-1.58.51-2.38.75a.72.72,0,0,0-.56.65,11.62,11.62,0,0,0,.06,3.58h1.62"/>
    <path class="cls-2" d="M36.42,18.36a7.58,7.58,0,0,0-15.16,0"/>
  </g>
</svg>
