<svg width="12" height="14" viewBox="0 0 12 14" fill="none" xmlns="http://www.w3.org/2000/svg">
<path d="M8.15431 14.0001H3.84661C3.13256 14.0001 2.44776 13.7164 1.94286 13.2115C1.43795 12.7066 1.1543 12.0218 1.1543 11.3077V4.8462C1.1543 4.70339 1.21103 4.56643 1.31201 4.46545C1.41299 4.36447 1.54995 4.30774 1.69276 4.30774C1.83557 4.30774 1.97253 4.36447 2.07351 4.46545C2.17449 4.56643 2.23122 4.70339 2.23122 4.8462V11.3077C2.23122 11.7362 2.40141 12.1471 2.70436 12.45C3.0073 12.7529 3.41818 12.9231 3.84661 12.9231H8.15431C8.58273 12.9231 8.99361 12.7529 9.29656 12.45C9.5995 12.1471 9.76969 11.7362 9.76969 11.3077V4.8462C9.76969 4.70339 9.82642 4.56643 9.9274 4.46545C10.0284 4.36447 10.1653 4.30774 10.3082 4.30774C10.451 4.30774 10.5879 4.36447 10.6889 4.46545C10.7899 4.56643 10.8466 4.70339 10.8466 4.8462V11.3077C10.8466 12.0218 10.563 12.7066 10.0581 13.2115C9.55315 13.7164 8.86835 14.0001 8.15431 14.0001Z" fill="#DC2626"/>
<path d="M11.3849 3.23073H0.615611C0.472802 3.23073 0.335842 3.174 0.23486 3.07302C0.133879 2.97204 0.0771484 2.83508 0.0771484 2.69227C0.0771484 2.54946 0.133879 2.4125 0.23486 2.31152C0.335842 2.21054 0.472802 2.15381 0.615611 2.15381H11.3849C11.5277 2.15381 11.6646 2.21054 11.7656 2.31152C11.8666 2.4125 11.9233 2.54946 11.9233 2.69227C11.9233 2.83508 11.8666 2.97204 11.7656 3.07302C11.6646 3.174 11.5277 3.23073 11.3849 3.23073Z" fill="#DC2626"/>
<path d="M8.15427 3.23077H3.84657C3.70376 3.23077 3.5668 3.17404 3.46582 3.07306C3.36484 2.97208 3.30811 2.83512 3.30811 2.69231V1.61539C3.30811 1.18696 3.4783 0.77608 3.78124 0.473136C4.08418 0.170192 4.49506 0 4.92349 0H7.07734C7.50577 0 7.91665 0.170192 8.21959 0.473136C8.52254 0.77608 8.69273 1.18696 8.69273 1.61539V2.69231C8.69273 2.83512 8.636 2.97208 8.53502 3.07306C8.43403 3.17404 8.29707 3.23077 8.15427 3.23077ZM4.38503 2.15385H7.6158V1.61539C7.6158 1.47258 7.55907 1.33562 7.45809 1.23464C7.35711 1.13366 7.22015 1.07692 7.07734 1.07692H4.92349C4.78068 1.07692 4.64372 1.13366 4.54274 1.23464C4.44176 1.33562 4.38503 1.47258 4.38503 1.61539V2.15385Z" fill="#DC2626"/>
<path d="M4.92372 10.7691C4.78091 10.7691 4.64395 10.7124 4.54297 10.6114C4.44198 10.5104 4.38525 10.3735 4.38525 10.2307V6.46144C4.38525 6.31863 4.44198 6.18167 4.54297 6.08069C4.64395 5.9797 4.78091 5.92297 4.92372 5.92297C5.06653 5.92297 5.20349 5.9797 5.30447 6.08069C5.40545 6.18167 5.46218 6.31863 5.46218 6.46144V10.2307C5.46218 10.3735 5.40545 10.5104 5.30447 10.6114C5.20349 10.7124 5.06653 10.7691 4.92372 10.7691Z" fill="#DC2626"/>
<path d="M7.07752 10.7691C6.93472 10.7691 6.79776 10.7124 6.69677 10.6114C6.59579 10.5104 6.53906 10.3735 6.53906 10.2307V6.46144C6.53906 6.31863 6.59579 6.18167 6.69677 6.08069C6.79776 5.9797 6.93472 5.92297 7.07752 5.92297C7.22033 5.92297 7.35729 5.9797 7.45828 6.08069C7.55926 6.18167 7.61599 6.31863 7.61599 6.46144V10.2307C7.61599 10.3735 7.55926 10.5104 7.45828 10.6114C7.35729 10.7124 7.22033 10.7691 7.07752 10.7691Z" fill="#DC2626"/>
</svg>
