<svg width="20" height="21" viewBox="0 0 20 21" fill="none" xmlns="http://www.w3.org/2000/svg">
<path d="M10.0023 13.8787C9.04797 13.8787 8.13276 13.4996 7.45797 12.8248C6.78318 12.15 6.40408 11.2348 6.40408 10.2805C6.40408 9.32623 6.78318 8.41102 7.45797 7.73623C8.13276 7.06144 9.04797 6.68235 10.0023 6.68235C10.9566 6.68235 11.8718 7.06144 12.5466 7.73623C13.2214 8.41102 13.6005 9.32623 13.6005 10.2805C13.6005 11.2348 13.2214 12.15 12.5466 12.8248C11.8718 13.4996 10.9566 13.8787 10.0023 13.8787ZM17.6407 11.2777C17.6818 10.9488 17.7127 10.6198 17.7127 10.2805C17.7127 9.94127 17.6818 9.60202 17.6407 9.25248L19.8099 7.57675C20.0052 7.42254 20.0566 7.14497 19.9333 6.9188L17.8772 3.36173C17.7538 3.13556 17.4762 3.04304 17.25 3.13556L14.6902 4.16362C14.1556 3.76268 13.6005 3.41314 12.9528 3.15612L12.5724 0.431782C12.5313 0.18505 12.3154 0 12.0584 0H7.94616C7.68915 0 7.47326 0.18505 7.43214 0.431782L7.05176 3.15612C6.40408 3.41314 5.84894 3.76268 5.31435 4.16362L2.7545 3.13556C2.52832 3.04304 2.25075 3.13556 2.12738 3.36173L0.0712765 6.9188C-0.0623704 7.14497 -0.000687048 7.42254 0.194643 7.57675L2.36384 9.25248C2.32271 9.60202 2.29187 9.94127 2.29187 10.2805C2.29187 10.6198 2.32271 10.9488 2.36384 11.2777L0.194643 12.9843C-0.000687048 13.1385 -0.0623704 13.4161 0.0712765 13.6423L2.12738 17.1993C2.25075 17.4255 2.52832 17.5077 2.7545 17.4255L5.31435 16.3872C5.84894 16.7984 6.40408 17.1479 7.05176 17.4049L7.43214 20.1293C7.47326 20.376 7.68915 20.5611 7.94616 20.5611H12.0584C12.3154 20.5611 12.5313 20.376 12.5724 20.1293L12.9528 17.4049C13.6005 17.1376 14.1556 16.7984 14.6902 16.3872L17.25 17.4255C17.4762 17.5077 17.7538 17.4255 17.8772 17.1993L19.9333 13.6423C20.0566 13.4161 20.0052 13.1385 19.8099 12.9843L17.6407 11.2777Z" fill="black"/>
</svg>
