<svg width="125" height="49" viewBox="0 0 125 49" fill="none" xmlns="http://www.w3.org/2000/svg">
<g id="Group 237579">
<g id="VENDOR">
<path d="M80.8698 47.1651L83.0681 40.1203H84.9152L81.8024 48.8797H80.5731L80.8698 47.1651ZM78.841 40.1203L81.0273 47.1651L81.3422 48.8797H80.1007L77 40.1203H78.841Z" fill="black"/>
<path d="M91.6677 47.5802V48.8797H86.9803V47.5802H91.6677ZM87.489 40.1203V48.8797H85.8236V40.1203H87.489ZM91.056 43.736V45.0053H86.9803V43.736H91.056ZM91.6495 40.1203V41.4258H86.9803V40.1203H91.6495Z" fill="black"/>
<path d="M99.9099 40.1203V48.8797H98.2385L94.4898 42.8035V48.8797H92.8244V40.1203H94.4898L98.2506 46.2025V40.1203H99.9099Z" fill="black"/>
<path d="M104.24 48.8797H102.338L102.35 47.5802H104.24C104.753 47.5802 105.183 47.4679 105.53 47.2433C105.877 47.0147 106.14 46.6878 106.317 46.2627C106.495 45.8336 106.584 45.3202 106.584 44.7226V44.2714C106.584 43.8102 106.533 43.4031 106.432 43.0501C106.331 42.6972 106.182 42.4004 105.984 42.1598C105.79 41.9191 105.55 41.7366 105.263 41.6123C104.977 41.488 104.648 41.4258 104.276 41.4258H102.302V40.1203H104.276C104.866 40.1203 105.403 40.2186 105.887 40.4151C106.376 40.6116 106.798 40.8944 107.153 41.2634C107.512 41.6283 107.787 42.0655 107.977 42.5749C108.17 43.0842 108.267 43.6537 108.267 44.2834V44.7226C108.267 45.3483 108.17 45.9178 107.977 46.4311C107.787 46.9405 107.512 47.3777 107.153 47.7426C106.798 48.1076 106.374 48.3884 105.881 48.5849C105.389 48.7814 104.842 48.8797 104.24 48.8797ZM103.271 40.1203V48.8797H101.606V40.1203H103.271Z" fill="black"/>
<path d="M116.824 44.2774V44.7286C116.824 45.3904 116.736 45.986 116.558 46.5154C116.38 47.0408 116.128 47.488 115.801 47.857C115.474 48.2259 115.084 48.5087 114.632 48.7052C114.18 48.9017 113.677 49 113.124 49C112.579 49 112.078 48.9017 111.622 48.7052C111.17 48.5087 110.778 48.2259 110.447 47.857C110.116 47.488 109.86 47.0408 109.678 46.5154C109.497 45.986 109.406 45.3904 109.406 44.7286V44.2774C109.406 43.6116 109.497 43.016 109.678 42.4906C109.86 41.9652 110.114 41.518 110.441 41.1491C110.768 40.7761 111.158 40.4913 111.61 40.2948C112.066 40.0983 112.567 40 113.112 40C113.665 40 114.168 40.0983 114.62 40.2948C115.072 40.4913 115.462 40.7761 115.789 41.1491C116.12 41.518 116.374 41.9652 116.552 42.4906C116.734 43.016 116.824 43.6116 116.824 44.2774ZM115.141 44.7286V44.2654C115.141 43.7881 115.096 43.369 115.008 43.008C114.919 42.643 114.788 42.3362 114.614 42.0876C114.44 41.8389 114.226 41.6524 113.972 41.5281C113.718 41.3997 113.431 41.3356 113.112 41.3356C112.789 41.3356 112.502 41.3997 112.252 41.5281C112.006 41.6524 111.796 41.8389 111.622 42.0876C111.449 42.3362 111.315 42.643 111.223 43.008C111.134 43.369 111.089 43.7881 111.089 44.2654V44.7286C111.089 45.2019 111.134 45.621 111.223 45.986C111.315 46.3509 111.449 46.6598 111.622 46.9124C111.8 47.1611 112.014 47.3496 112.264 47.4779C112.515 47.6063 112.801 47.6705 113.124 47.6705C113.447 47.6705 113.734 47.6063 113.984 47.4779C114.234 47.3496 114.444 47.1611 114.614 46.9124C114.788 46.6598 114.919 46.3509 115.008 45.986C115.096 45.621 115.141 45.2019 115.141 44.7286Z" fill="black"/>
<path d="M118.235 40.1203H121.439C122.109 40.1203 122.685 40.2206 123.165 40.4211C123.645 40.6217 124.015 40.9184 124.273 41.3115C124.532 41.7045 124.661 42.1878 124.661 42.7614C124.661 43.2146 124.58 43.6076 124.419 43.9405C124.257 44.2734 124.029 44.5521 123.734 44.7767C123.444 45.0013 123.1 45.1778 122.705 45.3061L122.184 45.5709H119.356L119.344 44.2654H121.457C121.8 44.2654 122.085 44.2052 122.311 44.0849C122.537 43.9646 122.707 43.7981 122.82 43.5856C122.937 43.373 122.995 43.1303 122.995 42.8576C122.995 42.5648 122.939 42.3122 122.826 42.0996C122.713 41.883 122.541 41.7166 122.311 41.6003C122.081 41.484 121.79 41.4258 121.439 41.4258H119.901V48.8797H118.235V40.1203ZM123.213 48.8797L121.173 44.9572L122.935 44.9512L125 48.7955V48.8797H123.213Z" fill="black"/>
</g>
<g id="Group 17">
<path id="Vector" d="M12.5015 7.19896C12.5015 4.4786 14.7112 2.26382 17.4291 2.26382C20.147 2.26382 22.3567 4.4786 22.3567 7.19896V9.83254H24.6153V7.19896C24.6116 3.22972 21.3893 0 17.4291 0C13.4652 0 10.2429 3.22972 10.2429 7.19896V9.83254H12.5015V7.19896Z" fill="#0D5EF8"/>
<path id="Vector_2" d="M24.6115 9.83252V26.6603C24.6115 27.2866 24.1071 27.7922 23.4822 27.7922C22.8573 27.7922 22.3529 27.2866 22.3529 26.6603V9.83252H12.5015V26.6603C12.5015 27.2866 11.9971 27.7922 11.3722 27.7922C10.7473 27.7922 10.2429 27.2866 10.2429 26.6603V9.83252H0V30.6899C0 34.7082 3.24866 37.9643 7.25773 37.9643H14.8919L17.3011 35.3194L19.7103 37.9643H27.3445C31.3535 37.9643 34.6022 34.7082 34.6022 30.6899V9.83252H24.6115Z" fill="#0D5EF8"/>
<g id="Group">
<path id="Vector_3" d="M52.3739 34.1422L52.2836 22.8269L47.2355 34.1422H40.9039L39.5901 14.1753H46.189L46.0686 26.3886L51.7716 14.1753H56.3115L56.639 26.3886L61.8639 14.1753H68.7942L58.6981 34.1422H52.3739Z" fill="#0D5EF8"/>
<path id="Vector_4" d="M64.9207 27.7959C64.9207 23.0343 68.7151 19.3254 73.6126 19.3254C76.8989 19.3254 78.958 20.7026 79.9443 22.3175L75.9428 25.4C75.5249 24.6832 74.6892 24.0832 73.5524 24.0832C71.7003 24.0832 70.3564 25.4906 70.3564 27.4375C70.3564 28.8448 71.5798 29.7428 73.0141 29.7428C74.0003 29.7428 74.8661 29.2334 75.4346 28.5769L78.303 32.1387C77.3469 33.1876 75.2878 34.5044 72.4795 34.5044C67.7552 34.5006 64.9207 31.6255 64.9207 27.7959Z" fill="#0D5EF8"/>
<path id="Vector_5" d="M91.6477 21.212L91.9752 19.6839H97.3507L94.1547 34.1422H88.7792L89.1368 32.6141C87.8833 33.9913 86.7163 34.5006 85.2256 34.5006C81.9996 34.5006 79.8501 32.3764 79.8501 28.4827C79.8501 24.4719 82.3308 19.3217 87.4654 19.3217C89.1105 19.3255 90.7254 19.9216 91.6477 21.212ZM85.4063 27.347C85.4063 28.7845 86.5131 29.7428 87.7967 29.7428C88.6324 29.7428 89.3514 29.3844 89.9763 28.7543L90.812 25.0718C90.2436 24.4417 89.3777 24.0833 88.4216 24.0833C86.7201 24.0833 85.4063 25.4906 85.4063 27.347Z" fill="#0D5EF8"/>
<path id="Vector_6" d="M97.1475 34.1422L100.343 19.6839H105.719L105.361 21.2685C106.464 20.1329 108.139 19.2613 110.229 19.2613L109.066 24.5285C108.798 24.4379 108.139 24.2908 107.454 24.2908C106.321 24.2908 105.215 24.6794 104.439 25.3963L102.527 34.1384H97.1475V34.1422Z" fill="#0D5EF8"/>
<path id="Vector_7" d="M110.767 30.8482C110.767 30.637 110.797 30.1314 110.887 29.7126L112.051 24.3548H109.66L110.707 19.6838H113.097L113.963 15.7335H119.338L118.473 19.6838H121.397L120.351 24.3548H117.426L116.651 27.8864C116.59 28.1543 116.56 28.4561 116.56 28.5731C116.56 29.2636 116.978 29.739 117.904 29.739C118.171 29.739 118.563 29.6484 118.65 29.588V33.8969C118.081 34.2855 117.068 34.4968 116.082 34.4968C112.977 34.5005 110.767 33.3649 110.767 30.8482Z" fill="#0D5EF8"/>
</g>
</g>
</g>
</svg>
